<svg width="61" height="60" viewBox="0 0 61 60" fill="none" xmlns="http://www.w3.org/2000/svg">
<path d="M13.0694 57.0661C9.25194 57.0661 5.43318 57.0661 1.61576 57.0661C0.352673 57.0661 0.00405045 56.7094 0.00270959 55.4249C0.00270959 53.8842 0.00941388 52.3436 2.78813e-05 50.8043C-0.00265383 50.2358 0.187748 49.7544 0.730795 49.5747C1.1411 49.4393 1.2068 49.2288 1.19875 48.8574C1.17864 47.9201 1.18534 46.9828 1.19339 46.0456C1.20144 45.1418 1.59028 44.6739 2.47257 44.6819C6.1331 44.7141 9.50134 43.6414 12.7543 42.0726C14.7092 41.1287 16.7353 40.3898 18.9195 40.1592C22.7892 39.7489 25.9604 41.1085 28.5549 43.9337C28.9464 44.3601 29.3205 44.8093 29.6464 45.2867C29.9293 45.7037 30.0875 45.7037 30.3812 45.288C31.4337 43.7943 32.7142 42.5299 34.2951 41.5926C37.064 39.95 40.0045 39.7529 43.0817 40.5078C45.1601 41.0174 47.0453 41.9868 48.9829 42.8356C51.6324 43.9954 54.3852 44.6497 57.2854 44.6712C58.4855 44.6806 58.8341 45.0547 58.8355 46.2454C58.8368 47.1384 58.8502 48.0314 58.8288 48.9231C58.8207 49.2542 58.8851 49.4353 59.2377 49.5452C59.7593 49.7088 60.0141 50.1271 60.0168 50.6729C60.0221 52.3919 60.0302 54.1095 60.0141 55.8285C60.006 56.6397 59.5394 57.0607 58.6772 57.0634C56.7129 57.0714 54.7472 57.0661 52.7828 57.0661C46.9997 57.0661 41.218 57.0714 35.4348 57.0554C34.9655 57.054 34.692 57.1653 34.4238 57.5796C32.3348 60.8084 27.6901 60.8057 25.601 57.5783C25.3543 57.1975 25.1102 57.0527 24.6557 57.054C20.7954 57.0741 16.9324 57.0661 13.0694 57.0661ZM14.673 51.818C10.7658 51.818 6.85851 51.826 2.95125 51.8072C2.50207 51.8046 2.30898 51.8864 2.35323 52.3798C2.40016 52.9108 2.40284 53.4538 2.35323 53.9848C2.29826 54.5828 2.47391 54.7652 3.10813 54.7625C10.6317 54.7384 18.1566 54.7558 25.6801 54.7343C26.5074 54.7317 27.0062 54.9971 27.3119 55.7909C27.7732 56.9883 28.7051 57.6158 29.995 57.6467C31.2178 57.6762 32.2691 56.9776 32.7317 55.7655C33.0253 54.9971 33.5107 54.7303 34.3112 54.7343C38.7092 54.7585 43.1086 54.7451 47.5066 54.7451C50.6992 54.7451 53.8917 54.7357 57.0843 54.7558C57.5509 54.7585 57.7145 54.6324 57.6823 54.1604C57.6434 53.6053 57.63 53.0408 57.685 52.4884C57.7413 51.9185 57.5415 51.8019 56.9931 51.8032C49.4696 51.8233 41.9447 51.8287 34.4212 51.8059C32.961 51.8019 31.7609 52.1357 30.9403 53.4699C30.5112 54.1685 29.5042 54.1578 29.0765 53.4565C28.2747 52.1411 27.0947 51.7952 25.6587 51.8072C21.9968 51.8381 18.3349 51.818 14.673 51.818ZM31.2755 50.0373C32.5614 49.4098 33.8996 49.4326 35.2391 49.442C36.6899 49.4527 38.142 49.4447 39.5928 49.4447C45.0179 49.4447 50.443 49.4379 55.8682 49.4554C56.379 49.4567 56.5949 49.3495 56.5292 48.8051C56.4809 48.4095 56.489 47.9992 56.5279 47.6023C56.5708 47.1572 56.4487 47.0016 55.9674 46.9681C53.1127 46.775 50.3908 46.0456 47.7814 44.871C46.5009 44.2944 45.2432 43.6642 43.9117 43.2043C40.5046 42.0257 37.2517 42.0445 34.3112 44.454C33.4249 45.1807 32.7276 46.0764 32.0143 46.9667C31.2956 47.8678 31.0248 48.8346 31.2755 50.0373ZM28.7587 50.0333C28.9867 48.8587 28.8056 47.8718 28.04 47.0284C27.8764 46.8474 27.7558 46.6289 27.6056 46.4344C25.5232 43.7366 22.8844 42.1946 19.3687 42.4762C17.4231 42.6318 15.6344 43.3062 13.8926 44.1295C11.1184 45.4422 8.27713 46.535 5.19585 46.8702C4.64744 46.9292 3.88985 46.8219 3.61498 47.1317C3.3334 47.4495 3.56805 48.1923 3.49832 48.7394C3.42055 49.3588 3.66727 49.4581 4.23311 49.4567C11.1305 49.4366 18.0278 49.4487 24.9252 49.4393C26.2232 49.4393 27.5117 49.438 28.7587 50.0333Z" fill="white"/>
<path d="M22.9742 30.0451C22.9742 28.9738 22.9555 27.9024 22.9796 26.8311C23.0037 25.8134 22.7222 24.9043 22.1711 24.0541C21.3934 22.8541 20.5111 21.7318 19.665 20.5827C14.4142 13.4641 17.6698 3.34328 26.085 0.620004C31.3921 -1.09763 37.1887 0.8332 40.5153 5.42563C43.7186 9.84778 43.6958 16.0345 40.459 20.4607C39.5633 21.6849 38.6153 22.8688 37.8001 24.152C37.2798 24.97 37.0385 25.8442 37.0452 26.8109C37.0599 29.0649 37.0331 31.3189 37.0573 33.5729C37.064 34.2272 36.8642 34.7233 36.3788 35.1631C35.7352 35.7478 35.1358 36.382 34.5271 37.0041C34.1784 37.3608 33.7775 37.5163 33.272 37.5123C31.1065 37.4962 28.9411 37.4949 26.7756 37.5137C26.2433 37.5177 25.8329 37.3461 25.4682 36.9706C24.8005 36.2814 24.118 35.6056 23.4301 34.9379C23.0815 34.6 22.9689 34.1977 22.9729 33.7284C22.9836 32.5015 22.9769 31.2733 22.9769 30.0464C22.9756 30.0451 22.9756 30.0451 22.9742 30.0451ZM31.2031 20.6899C31.2031 22.2292 31.2151 23.7699 31.195 25.3092C31.1897 25.686 31.2929 25.8066 31.6764 25.7946C32.5681 25.7664 33.4624 25.7771 34.3554 25.7906C34.6558 25.7946 34.7885 25.6967 34.8328 25.3856C34.9695 24.4417 35.3866 23.6103 35.8867 22.8072C36.6671 21.5548 37.5936 20.4097 38.4558 19.2163C40.3021 16.6607 41.0329 13.8274 40.3169 10.7381C39.3059 6.37094 36.5544 3.55112 32.194 2.61654C27.8201 1.67928 24.1099 3.13545 21.4899 6.75844C18.8699 10.3841 18.7613 14.2941 20.9201 18.2214C21.6522 19.5529 22.7195 20.6618 23.5642 21.9208C24.2869 22.9976 25.0123 24.0743 25.1974 25.4004C25.2416 25.7195 25.3945 25.7973 25.6868 25.7932C26.557 25.7812 27.4299 25.7611 28.2988 25.7999C28.7654 25.8214 28.8378 25.6404 28.8351 25.2301C28.8204 22.2172 28.8217 19.2043 28.8338 16.1927C28.8351 15.8508 28.7372 15.6068 28.4905 15.3748C27.9703 14.8854 27.4688 14.3758 26.9727 13.8636C26.4082 13.2804 26.3639 12.5697 26.844 12.0816C27.332 11.5855 28.032 11.6298 28.6179 12.201C28.9853 12.559 29.3621 12.9103 29.7013 13.2938C29.944 13.5673 30.1036 13.5432 30.3342 13.2844C30.6761 12.9022 31.0475 12.5469 31.4149 12.1889C31.9781 11.6405 32.6592 11.5869 33.1446 12.0441C33.6501 12.5201 33.6394 13.2482 33.091 13.8274C32.6002 14.3464 32.1028 14.8612 31.5732 15.3386C31.2768 15.6068 31.1883 15.8924 31.1924 16.2758C31.2138 17.7441 31.2031 19.2163 31.2031 20.6899ZM29.9816 30.4728C30.9617 30.4728 31.9432 30.4849 32.9234 30.4688C33.4986 30.4594 34.3058 30.7222 34.5861 30.3656C34.8824 29.9874 34.6558 29.2191 34.7094 28.6265C34.7483 28.192 34.5847 28.1196 34.1878 28.1223C31.8252 28.1411 29.4626 28.125 27.1001 28.1357C26.5262 28.1384 25.7579 27.885 25.432 28.2309C25.078 28.6064 25.3771 29.3747 25.3167 29.966C25.2752 30.387 25.428 30.4903 25.8356 30.4822C27.2167 30.4581 28.5991 30.4728 29.9816 30.4728ZM30.0513 32.818C28.6487 32.818 27.2462 32.8113 25.8423 32.826C25.6747 32.8274 25.3999 32.6759 25.3409 32.9628C25.2939 33.1881 25.2604 33.4455 25.4749 33.6493C25.8303 33.9872 26.199 34.3157 26.5074 34.6938C26.8238 35.0813 27.1926 35.1779 27.6726 35.1698C29.2977 35.1444 30.9228 35.1618 32.5493 35.1591C32.7665 35.1591 33.0025 35.2141 33.1835 35.0331C33.6555 34.5611 34.1288 34.0891 34.5928 33.6091C34.7872 33.4066 34.7403 33.1277 34.6719 32.9132C34.6129 32.7241 34.3581 32.8247 34.1945 32.8233C32.8121 32.8153 31.431 32.818 30.0513 32.818Z" fill="white"/>
<path d="M16.459 4.38909C16.4724 5.23919 15.6129 5.83721 14.8245 5.45775C14.0455 5.08365 13.2986 4.63178 12.5732 4.1598C12.0637 3.82861 11.9564 3.185 12.238 2.67816C12.5142 2.17936 13.139 1.90448 13.6714 2.16729C14.4866 2.56955 15.267 3.04421 16.0447 3.51887C16.3437 3.70123 16.4402 4.04047 16.459 4.38909Z" fill="white"/>
<path d="M47.9423 3.29772C47.894 3.67986 47.7197 4.03116 47.347 4.24972C46.6752 4.64394 46.0074 5.04485 45.3182 5.40688C44.6921 5.73539 44.0055 5.52488 43.7025 4.95904C43.4075 4.4066 43.5792 3.74422 44.153 3.39292C44.8355 2.97591 45.5221 2.55756 46.2421 2.20894C47.064 1.81339 47.9691 2.39934 47.9423 3.29772Z" fill="white"/>
<path d="M15.1236 20.2167C15.794 20.2462 16.1802 20.4714 16.3679 20.9622C16.5637 21.4744 16.4846 21.9786 16.0287 22.2816C15.2698 22.7858 14.48 23.2524 13.6634 23.656C13.1834 23.8933 12.6953 23.7244 12.3521 23.2872C12.0316 22.8783 11.9257 22.3687 12.2689 21.9906C13.0802 21.1016 14.2025 20.6913 15.1236 20.2167Z" fill="white"/>
<path d="M46.8563 23.7363C46.5761 23.7363 46.3816 23.7015 46.202 23.5969C45.5288 23.204 44.8423 22.8326 44.1813 22.4183C43.5564 22.0267 43.3915 21.3751 43.7241 20.8066C44.0579 20.2367 44.7163 20.057 45.3532 20.4043C46.0384 20.7771 46.7182 21.1606 47.3725 21.5843C47.8378 21.886 48.0644 22.3338 47.87 22.909C47.6957 23.4279 47.331 23.7068 46.8563 23.7363Z" fill="white"/>
<path d="M11.8277 14.0674C11.4268 14.0661 11.0246 14.0889 10.6263 14.0621C9.98674 14.0192 9.53755 13.5525 9.51476 12.9465C9.49196 12.3082 9.93311 11.7773 10.6009 11.7437C11.4228 11.7035 12.2488 11.7062 13.0707 11.7411C13.7277 11.7692 14.2064 12.3123 14.1957 12.921C14.185 13.5311 13.6902 14.0272 13.0291 14.0648C12.6296 14.0849 12.2287 14.0674 11.8277 14.0674Z" fill="white"/>
<path d="M48.1463 14.0688C47.7682 14.0688 47.3887 14.0849 47.0106 14.0648C46.3442 14.0286 45.8521 13.5446 45.8333 12.9331C45.8145 12.3271 46.2932 11.7733 46.9462 11.7424C47.7682 11.7049 48.5941 11.7049 49.4161 11.7411C50.0811 11.7706 50.5303 12.3002 50.5142 12.9331C50.4981 13.562 50.0275 14.0299 49.349 14.0648C48.9494 14.0849 48.5472 14.0688 48.1463 14.0688Z" fill="white"/>
</svg>
