<svg width="63" height="60" viewBox="0 0 63 60" fill="none" xmlns="http://www.w3.org/2000/svg">
<path d="M31.0356 0.000346426C39.8543 0.000346426 48.6743 -0.00103928 57.4929 0.00173213C59.7239 0.00173213 61.226 0.991126 61.8468 2.84381C62.0089 3.3302 62.0671 3.82905 62.0671 4.34176C62.0644 17.3161 62.0671 30.2891 62.0616 43.2634C62.0602 45.8104 60.2906 47.5799 57.7479 47.5827C51.1685 47.5896 44.5892 47.5938 38.0085 47.5702C37.3891 47.5674 37.2214 47.7032 37.3212 48.3254C37.4833 49.3328 37.6621 50.3236 38.1249 51.2451C38.9355 52.8581 40.2436 53.6923 42.0437 53.7505C42.828 53.7754 43.6137 53.7713 44.398 53.7851C46.2105 53.8184 47.5532 55.1126 47.581 56.8475C47.6073 58.5478 46.3338 59.8642 44.5435 59.9848C44.3828 59.9958 44.2206 59.9945 44.0585 59.9945C35.3784 59.9945 26.697 59.9903 18.0169 60C16.6132 60.0014 15.4714 59.5704 14.8187 58.2512C13.8363 56.2669 15.1846 53.9348 17.3948 53.799C18.1777 53.7505 18.9634 53.774 19.7477 53.756C22.0535 53.7034 23.4323 52.714 24.2457 50.5509C24.5575 49.7208 24.6739 48.8562 24.7695 47.9832C24.8027 47.6797 24.7168 47.555 24.4078 47.5841C24.2471 47.5993 24.0849 47.5868 23.9228 47.5868C17.4585 47.5868 10.9942 47.5882 4.52987 47.5868C1.71273 47.5841 0.00138571 45.87 0 43.0542C0 30.242 0 17.4297 0 4.61752C0 1.65626 1.66285 0.00173213 4.64766 0.00173213C13.4427 -0.00103928 22.2392 0.000346426 31.0356 0.000346426ZM31.1022 6.21246C23.0678 6.21246 15.0349 6.21939 7.00058 6.19722C6.3687 6.19583 6.20242 6.3538 6.2038 6.99123C6.22459 16.802 6.22597 26.6128 6.2038 36.4236C6.20242 37.068 6.37979 37.2093 7.00197 37.2093C23.0235 37.1913 39.045 37.1913 55.0665 37.2093C55.6887 37.2093 55.8675 37.068 55.8661 36.4222C55.8439 26.6114 55.8439 16.8006 55.8661 6.98984C55.8675 6.34688 55.6929 6.19583 55.0652 6.19722C47.0779 6.21939 39.0907 6.21246 31.1022 6.21246ZM31.1049 39.3128C31.1049 39.3142 31.1049 39.3142 31.1049 39.3156C28.4735 39.3156 25.842 39.3156 23.2106 39.3156C16.4012 39.3142 9.59047 39.3225 2.78111 39.2989C2.19773 39.2976 2.04253 39.4514 2.06747 40.0223C2.11459 41.1281 2.07024 42.238 2.0841 43.3452C2.09934 44.6547 2.95017 45.5041 4.26936 45.5055C22.1145 45.5097 39.9582 45.5097 57.8033 45.5055C59.1267 45.5055 59.9719 44.663 59.9886 43.348C60.0024 42.263 59.9539 41.1766 60.0066 40.0943C60.0371 39.4708 59.8694 39.2962 59.2237 39.2976C49.8494 39.3197 40.4764 39.3128 31.1049 39.3128ZM31.0356 2.07752C22.2641 2.07752 13.4912 2.07752 4.71971 2.07752C2.78388 2.07752 2.07856 2.77453 2.07856 4.6868C2.07856 15.0976 2.07856 25.507 2.07856 35.9178C2.07856 37.2121 2.07994 37.1774 3.36865 37.2259C3.99499 37.2495 4.16682 37.0818 4.16543 36.4389C4.14326 26.1902 4.15019 15.9415 4.15019 5.69282C4.15019 4.41659 4.41486 4.14915 5.68555 4.14776C22.5828 4.14638 39.4801 4.14638 56.3774 4.14776C57.655 4.14776 57.9197 4.41382 57.9197 5.68589C57.9197 15.7503 57.9197 25.8133 57.9197 35.8776C57.9197 37.2135 57.9211 37.1774 59.2514 37.2273C59.8652 37.2509 60.0066 37.0832 60.0052 36.4735C59.9844 25.8784 59.99 15.2833 59.99 4.68819C59.99 2.77453 59.2874 2.0789 57.3516 2.0789C48.5787 2.07752 39.8072 2.07752 31.0356 2.07752ZM37.2852 53.7214C35.9244 51.9865 35.3784 50.0437 35.2468 47.9665C35.2191 47.5356 34.9544 47.5896 34.6787 47.5896C32.2592 47.591 29.8384 47.6021 27.4189 47.5799C26.9727 47.5758 26.83 47.7143 26.8037 48.1467C26.7109 49.6571 26.352 51.1038 25.63 52.4437C25.4 52.8719 25.1159 53.271 24.8332 53.72C29.0056 53.7214 33.0948 53.7214 37.2852 53.7214ZM31.0273 55.8498C26.9908 55.8498 22.9542 55.8498 18.9176 55.8512C18.434 55.8512 17.9463 55.8276 17.4654 55.8775C16.9056 55.9343 16.5994 56.3057 16.5813 56.8558C16.5619 57.4115 16.8571 57.7732 17.4114 57.8785C17.6359 57.9214 17.8701 57.9173 18.1001 57.9173C26.7275 57.9187 35.3549 57.9187 43.9823 57.9159C44.2345 57.9159 44.4936 57.9145 44.7375 57.8591C45.192 57.7552 45.4456 57.442 45.4872 56.9778C45.5273 56.5163 45.325 56.1713 44.9204 55.9565C44.6446 55.811 44.3356 55.8484 44.0363 55.8484C39.7005 55.8498 35.3646 55.8498 31.0273 55.8498Z" fill="white"/>
<path d="M49.6622 21.9541C49.6622 23.2691 49.6775 24.5855 49.6539 25.9006C49.6456 26.3883 49.7717 26.7957 50.0488 27.1893C50.5394 27.8877 51.0105 28.5985 51.4747 29.3149C51.8572 29.9039 51.7671 30.4983 51.2682 30.8392C50.7763 31.1746 50.1805 31.0401 49.7745 30.4762C49.4641 30.0466 49.162 29.6073 48.8931 29.1514C48.6687 28.7704 48.5329 28.8493 48.3361 29.1694C48.0465 29.6406 47.743 30.1062 47.4104 30.5468C47.0224 31.0609 46.4113 31.1621 45.9527 30.8281C45.4829 30.4859 45.3984 29.9163 45.7407 29.3537C45.8598 29.157 45.9679 28.945 46.1217 28.7773C47.4285 27.3569 47.7596 25.6789 47.6044 23.8012C47.4964 22.4945 47.5615 21.1712 47.5933 19.8575C47.6072 19.2755 47.4395 19.252 46.9795 19.4944C46.3074 19.8492 45.6159 20.1693 44.9176 20.4686C44.5656 20.6183 44.4603 20.8247 44.463 21.203C44.4824 23.3259 44.452 25.4488 44.4838 27.5717C44.4949 28.2964 44.2095 28.7177 43.5748 29.0336C39.6103 30.9986 35.6555 32.9843 31.6993 34.97C31.2517 35.1945 30.8388 35.2056 30.3829 34.9769C26.4295 32.9884 22.4761 31.0013 18.5102 29.0406C17.8436 28.7108 17.5651 28.2771 17.5776 27.526C17.615 25.4267 17.579 23.3259 17.5998 21.2266C17.6039 20.8233 17.4875 20.6099 17.112 20.4423C15.8496 19.8783 14.6066 19.27 13.3512 18.6921C12.8676 18.4704 12.438 18.2141 12.4228 17.6113C12.4075 17.0016 12.8246 16.7438 13.3138 16.5138C19.009 13.838 24.7001 11.1567 30.3884 8.46424C30.8485 8.24668 31.2531 8.26192 31.7062 8.47394C37.4611 11.1844 43.2187 13.8837 48.9763 16.5886C49.4585 16.8145 49.7079 17.1859 49.7052 17.736C49.6955 19.1425 49.7024 20.5504 49.7024 21.9568C49.6885 21.9541 49.6761 21.9541 49.6622 21.9541ZM43.8658 16.5554C43.6621 16.4126 43.6122 16.3669 43.5554 16.3392C39.4884 14.4242 35.4185 12.5147 31.357 10.5885C31.0508 10.443 30.8374 10.5442 30.5866 10.662C26.7288 12.48 22.8682 14.2953 19.009 16.1119C17.9961 16.5886 16.9859 17.0695 15.9341 17.5669C16.0575 17.6501 16.1101 17.6972 16.1725 17.7263C20.949 19.9684 25.7269 22.2035 30.4979 24.4567C30.8942 24.6437 31.2102 24.634 31.5982 24.4483C34.3225 23.1486 37.0564 21.8695 39.7877 20.5822C41.0861 19.9697 42.3817 19.3545 43.6787 18.742C43.669 18.7046 43.6593 18.6658 43.6496 18.6284C43.4044 18.6284 43.1591 18.6284 42.9138 18.6284C39.7738 18.6284 36.6352 18.627 33.4952 18.6298C33.0587 18.6298 32.5515 18.5161 32.2051 18.6977C31.8711 18.8723 32.1289 19.4141 32.0471 19.7882C31.9293 20.3342 31.612 20.6668 31.0591 20.682C30.509 20.6959 30.0877 20.391 30.0462 19.8409C29.9353 18.3457 29.9436 16.845 30.0406 15.3498C30.0767 14.7941 30.4993 14.4934 31.0439 14.4962C31.5566 14.499 31.9183 14.7872 32.0194 15.3082C32.0721 15.5771 32.079 15.8597 32.0638 16.1341C32.0444 16.4625 32.1538 16.5665 32.4906 16.5651C36.2264 16.5512 39.9609 16.5554 43.8658 16.5554ZM42.4039 24.5897C42.4039 23.8982 42.4039 23.2054 42.4039 22.5139C42.4039 21.6714 42.4025 21.6714 41.6695 22.0164C38.941 23.2996 36.2375 24.6396 33.4716 25.8368C32.388 26.3052 31.831 26.8747 32.0651 28.0706C32.1039 28.2701 32.0748 28.4849 32.0693 28.6928C32.0513 29.5131 31.6799 29.9815 31.0439 29.9898C30.4051 29.9981 30.0129 29.527 30.0004 28.7177C29.9907 28.1413 29.9852 27.5634 30.0032 26.9883C30.0129 26.671 29.9034 26.4923 29.6055 26.3523C26.4572 24.8793 23.3144 23.3938 20.173 21.9042C19.8141 21.7338 19.6492 21.7227 19.6561 22.2077C19.6783 23.7763 19.6728 25.3449 19.6575 26.9121C19.6548 27.2156 19.7725 27.3583 20.0289 27.4858C23.5791 29.247 27.1251 31.0124 30.6656 32.7931C30.951 32.9372 31.163 32.9178 31.4346 32.7806C34.9557 31.0138 38.481 29.2526 42.0103 27.5038C42.2958 27.3625 42.4191 27.2017 42.4094 26.8747C42.3873 26.1126 42.4039 25.3518 42.4039 24.5897Z" fill="white"/>
<path d="M31.0703 43.4353C30.1016 43.4353 29.133 43.4408 28.1644 43.4339C27.369 43.4284 26.8799 43.0168 26.8951 42.3863C26.9104 41.7697 27.376 41.3706 28.1298 41.3678C30.067 41.3595 32.0042 41.3595 33.9414 41.3678C34.6911 41.3706 35.1622 41.7738 35.1761 42.3863C35.1913 43.0154 34.6994 43.4284 33.9068 43.4339C32.9604 43.4408 32.0153 43.4353 31.0703 43.4353Z" fill="white"/>
</svg>
