<svg width="93" height="80" viewBox="0 0 93 80" fill="none" xmlns="http://www.w3.org/2000/svg">
<path d="M6.5492 54.3108C4.99645 54.3108 3.44577 54.3212 1.89301 54.3088C0.503818 54.2963 0.0110779 53.8098 0.00900759 52.4517C0.00279658 49.4166 -0.00962544 46.3815 0.0131483 43.3484C0.0338516 40.5017 1.5866 38.2367 4.26148 37.2202C4.91985 36.9697 5.11446 36.6571 5.11032 35.9635C5.08133 29.4813 5.09168 22.997 5.09375 16.5148C5.09375 14.6763 5.43122 14.2188 7.27382 14.3782C11.3689 14.7322 15.108 13.695 18.8822 12.1816C29.0434 8.10713 39.2957 4.25838 49.4983 0.291614C50.4631 -0.0831167 51.3182 -0.10382 52.2829 0.270911C62.8417 4.37225 73.4107 8.44667 83.9756 12.5294C85.4539 13.1008 86.9238 13.6867 88.4082 14.2395C89.1577 14.519 89.8326 14.8482 89.8326 15.7798C89.8326 16.7591 89.1142 17.0883 88.3358 17.3843C85.1495 18.5975 81.9861 19.8646 78.7853 21.0364C77.9841 21.3304 77.7853 21.7299 77.7957 22.5353C77.8412 26.2598 77.8309 29.9844 77.8019 33.7068C77.7978 34.3445 77.9737 34.653 78.5907 34.9221C88.0749 39.0773 93.4909 48.5822 92.6545 58.4308C91.7477 69.12 83.9218 77.6932 73.6799 79.542C64.6905 81.1652 56.9453 78.4799 51.1153 71.387C45.2956 64.3064 44.2314 56.2652 47.4321 47.6878C47.7261 46.9011 47.7655 46.6071 46.8524 46.2634C39.5731 43.514 32.3228 40.688 25.0622 37.8931C24.2816 37.5929 23.9525 37.0525 23.9566 36.2264C23.9773 31.6055 23.9649 26.9845 24.0063 22.3655C24.0125 21.672 23.8179 21.3304 23.1512 21.0819C20.1182 19.9515 17.1141 18.7445 14.0852 17.6058C12.2178 16.904 10.2592 17.3408 8.34211 17.2911C7.76656 17.2767 8.00879 17.8812 8.00879 18.2021C7.99223 23.6512 8.03156 29.0983 7.97359 34.5474C7.95703 36.0236 8.05227 37.0297 9.75408 37.7316C11.9445 38.6363 12.959 40.7211 13.019 43.0917C13.0977 46.2614 13.0521 49.4373 13.0397 52.609C13.0356 53.7746 12.5097 54.286 11.311 54.3046C9.72096 54.3274 8.13508 54.3108 6.5492 54.3108ZM69.1707 35.8745C57.7341 35.92 48.5501 45.1807 48.6102 56.611C48.6702 67.9792 57.9391 77.1384 69.3239 77.0783C80.7273 77.0162 89.8658 67.8094 89.8347 56.4102C89.8036 45.0606 80.514 35.831 69.1707 35.8745ZM21.8863 17.4381C22.1161 17.5541 22.2796 17.6535 22.4556 17.7197C31.77 21.3221 41.0866 24.9203 50.3969 28.5331C50.784 28.6842 51.107 28.649 51.4776 28.5062C54.0117 27.5145 56.5499 26.5352 59.0881 25.558C65.001 23.2806 70.916 21.0074 76.8268 18.7259C79.2656 17.7839 81.6962 16.8233 84.2821 15.8129C83.7935 15.5976 83.4871 15.4465 83.1703 15.3223C72.7275 11.2872 62.2827 7.26658 51.8523 3.20872C51.0966 2.91473 50.4797 3.0286 49.7861 3.29774C42.3039 6.19828 34.8176 9.08226 27.3312 11.9745C25.4886 12.6867 23.6481 13.4031 21.8076 14.1173C21.8221 14.196 21.8366 14.2726 21.8511 14.3513C23.4162 14.3513 24.9814 14.3513 26.5466 14.3513C34.4449 14.3513 42.3453 14.3492 50.2437 14.3533C51.6577 14.3533 52.345 14.8233 52.3554 15.7757C52.3658 16.7177 51.6246 17.2477 50.2851 17.258C50.078 17.2601 49.871 17.258 49.664 17.258C40.7988 17.258 31.9336 17.256 23.0684 17.2642C22.7144 17.2622 22.3314 17.1483 21.8863 17.4381ZM26.8882 29.032C26.8882 30.8933 26.9213 32.7566 26.8716 34.6157C26.853 35.2824 27.0911 35.5743 27.6936 35.8041C34.6395 38.4562 41.5793 41.1249 48.5108 43.8163C49.0594 44.0295 49.3141 43.9633 49.6681 43.4685C55.7073 35.036 63.8789 31.7607 74.0732 33.4853C74.8186 33.6116 74.9345 33.4129 74.9283 32.74C74.8993 29.6718 74.8993 26.6035 74.9283 23.5353C74.9345 22.8065 74.8662 22.5664 74.0422 22.8873C66.7629 25.7257 59.4608 28.5082 52.1794 31.3405C51.3182 31.6758 50.5791 31.7007 49.7074 31.3591C42.395 28.5103 35.0639 25.7091 27.7474 22.8707C27.0745 22.6098 26.8592 22.6533 26.8799 23.4421C26.9213 25.3075 26.8882 27.1708 26.8882 29.032ZM2.90541 46.9218C2.90541 48.1599 2.92611 49.4 2.89506 50.6381C2.88263 51.1639 2.95096 51.4351 3.59483 51.4206C5.55544 51.3772 7.51812 51.3834 9.47873 51.4186C10.0501 51.4289 10.1537 51.2115 10.1495 50.7022C10.1267 48.224 10.1681 45.7459 10.1267 43.2697C10.0936 41.1911 8.54086 39.7088 6.50158 39.7129C4.48301 39.717 2.94889 41.2387 2.90955 43.3111C2.88885 44.5119 2.90748 45.7169 2.90541 46.9218Z" fill="#DE353B"/>
<path d="M66.2329 65.0476C68.0796 62.203 69.8394 59.495 71.5971 56.7828C73.9593 53.1411 76.3154 49.4932 78.6818 45.8556C79.2987 44.9074 80.0875 44.6589 80.8432 45.1372C81.6196 45.6278 81.7417 46.4394 81.131 47.3856C76.6777 54.2694 72.2203 61.1533 67.7504 68.0268C66.9057 69.3249 65.8892 69.3725 64.9534 68.151C62.2682 64.6501 59.6036 61.1347 56.9433 57.6172C56.26 56.7145 56.3077 55.8905 57.0157 55.3419C57.7176 54.7974 58.5478 54.9754 59.2289 55.8657C61.5353 58.8739 63.8292 61.8924 66.2329 65.0476Z" fill="#DE353B"/>
</svg>
