<svg width="71" height="80" viewBox="0 0 71 80" fill="none" xmlns="http://www.w3.org/2000/svg">
<path d="M42.5283 51.8342C43.7475 51.0029 44.0747 51.0315 45.0294 51.954C45.201 52.1202 45.3798 52.2794 45.5335 52.4599C46.9637 54.1529 48.5476 55.5688 50.954 55.5456C58.5465 57.8661 63.0821 62.9683 64.7 70.6985C65.2542 73.3462 65.0146 76.0403 65.0271 78.7166C65.0307 79.5211 64.5319 79.9573 63.7185 79.9948C63.5111 80.0038 63.3019 79.9984 63.0928 79.9984C44.3876 79.9984 25.6841 79.9984 6.97891 79.9984C5.31094 79.9984 4.99272 79.6891 5.00166 78.0283C5.01417 75.293 4.92478 72.5614 5.49865 69.8458C7.1255 62.162 13.5578 56.1516 21.3453 55.1523C21.76 55.0986 22.0621 54.927 22.3446 54.6392C23.2403 53.7256 24.1467 52.8193 25.0602 51.9218C25.9684 51.0297 26.3224 51.0118 27.5166 51.8682C27.4075 50.5667 27.9045 49.3743 26.5494 48.4017C25.0066 47.2951 24.0019 45.6647 23.2599 43.9145C23.0758 43.4783 22.8702 43.2816 22.3714 43.2351C20.0027 43.0117 18.2596 41.2168 18.0576 38.8623C17.8484 36.4327 19.2268 34.266 21.4829 33.6349C22.2373 33.424 22.3893 33.2184 21.8405 32.6266C21.6206 32.3889 21.3828 32.1189 21.288 31.8204C20.893 30.5725 19.8668 30.0987 18.7941 29.6161C16.3092 28.4933 13.8456 27.3242 11.2534 26.1174C11.2534 26.6091 11.2534 26.9809 11.2534 27.3546C11.2534 28.6042 11.2534 28.6006 12.4905 28.7132C13.2968 28.7865 13.7473 29.2371 13.7491 30.0487C13.7598 33.7422 13.7634 37.4357 13.7473 41.1292C13.7437 41.9819 13.2611 42.4539 12.4083 42.4646C10.8011 42.4861 9.19214 42.4879 7.58316 42.4628C6.74292 42.4503 6.25844 41.9623 6.25308 41.1113C6.23699 37.4482 6.23699 33.7851 6.25129 30.1202C6.25487 29.128 6.76438 28.6757 7.89066 28.724C8.57537 28.7544 8.84174 28.5792 8.76129 27.8623C8.69514 27.2741 8.66833 26.6591 8.76665 26.0799C8.92934 25.1163 8.4395 24.7427 7.64931 24.394C5.44502 23.4233 3.27648 22.3721 1.09006 21.3584C0.525131 21.0974 0.0335005 20.7738 0.00132098 20.0784C-0.0290707 19.3687 0.469711 19.0344 1.00604 18.734C11.1658 13.0669 21.3256 7.3997 31.4854 1.73253C32.3167 1.2695 33.1784 0.852959 33.9757 0.334511C34.7301 -0.155332 35.3702 -0.0713079 36.1246 0.354176C40.998 3.10016 45.8911 5.81039 50.7752 8.53492C56.6479 11.8101 62.5225 15.0817 68.3845 18.3729C69.0799 18.7626 70.0453 18.9861 70.0275 20.0462C70.0078 21.1618 68.9959 21.3281 68.2486 21.6784C62.1935 24.5281 56.1313 27.3617 50.0637 30.1863C49.6328 30.3866 49.3682 30.6655 49.1537 31.0927C48.8641 31.6738 48.4761 32.2101 48.1007 32.7446C47.8022 33.1683 47.6788 33.3936 48.3671 33.5777C50.3318 34.1015 51.5421 35.4137 51.905 37.4142C52.2644 39.3915 51.6458 41.0577 50.0726 42.3395C49.3557 42.9241 48.5226 43.2298 47.6037 43.2459C47.1818 43.253 46.9762 43.4193 46.8189 43.8054C46.0663 45.6575 44.9471 47.2719 43.3864 48.5179C42.7017 49.065 42.4139 49.6353 42.5158 50.4755C42.5694 50.8831 42.5283 51.2997 42.5283 51.8342ZM34.9411 77.492C40.122 77.492 45.3029 77.4777 50.4838 77.5099C51.1649 77.5134 51.3455 77.3382 51.2972 76.6786C51.2364 75.8186 51.2775 74.9534 51.2829 74.0899C51.2901 73.0727 51.7656 72.4827 52.5558 72.4934C53.337 72.5042 53.7804 73.0888 53.7858 74.1274C53.7911 75.0803 53.8018 76.0332 53.7786 76.986C53.7697 77.3597 53.8573 77.5027 54.2667 77.5009C56.8571 77.483 59.4476 77.4848 62.038 77.4991C62.417 77.5009 62.5582 77.4097 62.5475 77.0057C62.501 75.3109 62.5833 73.6161 62.3777 71.9231C61.5213 64.8061 56.0437 58.9637 49.0178 57.6944C48.3206 57.5675 47.8039 57.6891 47.2801 58.2272C44.8685 60.6979 42.4175 63.131 39.9647 65.5623C39.035 66.4848 38.5434 66.4777 37.6227 65.5838C36.8969 64.8794 36.1675 64.175 35.481 63.4331C35.127 63.0488 34.9035 63.0774 34.5675 63.4456C34.0079 64.0624 33.4036 64.6381 32.8137 65.2262C31.446 66.5903 31.1099 66.5921 29.7602 65.2423C27.4451 62.9272 25.1103 60.6299 22.8327 58.2773C22.2838 57.7105 21.7511 57.5604 21.0217 57.7034C15.4832 58.7921 11.5698 61.9493 9.11527 66.9925C7.56529 70.1765 7.41869 73.5786 7.49378 77.0236C7.50272 77.4455 7.66719 77.5009 8.02295 77.4991C10.583 77.4884 13.1449 77.4759 15.7049 77.5081C16.2305 77.5152 16.2716 77.2953 16.2645 76.8824C16.2448 75.8705 16.2412 74.8568 16.2645 73.845C16.2841 73.0405 16.8115 72.4988 17.5123 72.4952C18.2185 72.4916 18.7369 73.028 18.7566 73.8396C18.7798 74.7925 18.8156 75.7489 18.7459 76.6964C18.6958 77.3901 18.9318 77.5134 19.579 77.5099C24.6973 77.4795 29.8192 77.492 34.9411 77.492ZM66.0569 19.9372C65.3722 19.5564 64.8555 19.2721 64.3406 18.9843C54.8316 13.6765 45.319 8.37581 35.8224 3.04831C35.22 2.71043 34.7891 2.7444 34.2099 3.06977C26.7353 7.26025 19.25 11.4311 11.7576 15.5894C11.3535 15.8146 11.2391 16.0667 11.2445 16.4993C11.2641 18.5535 11.2784 20.6094 11.2373 22.6635C11.2266 23.2141 11.4465 23.4483 11.897 23.6521C13.1985 24.2385 14.4839 24.8606 15.7782 25.4631C17.1101 26.0835 18.4455 26.6949 19.8203 27.3295C20.126 24.3011 20.0098 21.3835 19.9901 18.4694C19.9812 17.0929 20.6016 16.2169 21.7529 15.6269C22.6557 15.1639 23.6068 14.8171 24.5972 14.6007C29.7638 13.4691 34.9858 13.3028 40.2328 13.7927C42.7214 14.0251 45.2117 14.304 47.5519 15.2819C49.5899 16.1329 50.019 16.8033 50.0386 18.9897C50.0637 21.7428 49.901 24.5013 50.246 27.3403C55.4931 24.8839 60.6811 22.4543 66.0569 19.9372ZM45.3351 36.944C45.3351 36.2307 45.285 35.5121 45.3494 34.8041C45.4137 34.0854 45.2242 33.8208 44.4483 33.8566C42.9949 33.9245 41.5343 33.8423 40.0773 33.8834C37.0095 33.9692 34.4101 33.0146 32.4543 30.5689C32.2237 30.2811 32.0843 30.1774 31.8143 30.5618C30.2429 32.7929 28.0547 33.8655 25.3445 33.8637C24.8153 33.8637 24.7027 34.0479 24.7116 34.5324C24.7384 36.0198 24.6919 37.5072 24.7295 38.9928C24.8618 44.0933 28.532 48.3249 33.4215 49.0507C38.4647 49.7997 43.2309 46.8678 44.8095 42.0624C45.3601 40.3926 45.3672 38.671 45.3351 36.944ZM34.0937 23.3589C32.9728 23.3428 30.8918 23.4662 28.8252 23.7308C26.9999 23.965 25.1746 24.2331 23.4369 24.9125C22.695 25.2021 22.3768 25.6598 22.3786 26.4446C22.3822 28.0643 22.7343 29.5696 23.6854 30.905C23.8553 31.1446 24.0108 31.3466 24.3719 31.3859C27.7901 31.7542 30.2733 29.8216 30.6505 26.4464C30.7327 25.7062 31.0188 25.1753 31.8125 25.1127C32.6528 25.0484 33.021 25.5543 33.1962 26.3177C33.9256 29.4927 36.2801 31.3609 39.532 31.3734C41.1088 31.3788 42.6874 31.3752 44.2642 31.3752C46.2665 31.3752 46.5132 31.2072 47.1961 29.3139C47.3266 28.951 47.4625 28.5792 47.5108 28.2019C47.8969 25.1574 47.8075 25.2486 45.0687 24.4173C44.813 24.3404 44.5485 24.2903 44.2857 24.2349C41.2429 23.5985 38.1608 23.3786 34.0937 23.3589ZM47.5322 22.5151C47.5322 21.9323 47.5322 21.4568 47.5322 20.9812C47.5322 17.572 47.5394 17.538 44.1087 16.8712C38.9546 15.8701 33.7612 15.8057 28.5606 16.4403C26.7335 16.6638 24.9047 16.9302 23.1956 17.6936C22.7075 17.9117 22.4698 18.1888 22.4984 18.768C22.5502 19.8371 22.5287 20.9097 22.5055 21.9806C22.4966 22.4239 22.5734 22.5473 23.049 22.3918C26.5351 21.2512 30.1517 20.9526 33.7862 20.8811C38.4057 20.7917 42.9913 21.0885 47.5322 22.5151ZM30.0194 50.6525C30.0194 51.9003 30.023 53.0499 30.0158 54.1994C30.0141 54.4372 30.1481 54.5802 30.2965 54.7286C31.7464 56.1802 33.2016 57.6265 34.6354 59.0942C34.9393 59.4053 35.127 59.391 35.4238 59.0889C36.8379 57.6444 38.2717 56.2196 39.7001 54.7876C39.8699 54.6177 40.029 54.4604 40.0254 54.1851C40.0147 53.0409 40.0219 51.8968 40.0219 50.665C36.6484 51.9879 33.3732 51.9862 30.0194 50.6525ZM31.3477 63.1203C31.4621 63.0166 31.5962 62.9039 31.7214 62.7806C32.0807 62.4248 32.4096 62.0351 32.7994 61.7169C33.2409 61.3558 33.1784 61.1126 32.7922 60.7372C31.0885 59.0782 29.4205 57.3834 27.7311 55.71C26.2044 54.1976 26.2115 54.2155 24.6848 55.8084C24.3523 56.1552 24.3737 56.334 24.6991 56.6558C26.7514 58.6813 28.7823 60.7283 30.8221 62.7645C30.9633 62.9057 31.0778 63.0988 31.3477 63.1203ZM38.842 63.1381C38.9814 63.0112 39.1369 62.8771 39.28 62.7341C40.9408 61.0733 42.6034 59.4125 44.2588 57.7445C44.738 57.2618 45.5353 56.7827 45.5746 56.2589C45.6211 55.6278 44.6664 55.2631 44.2392 54.6982C43.9388 54.2995 43.7011 54.2995 43.3328 54.6749C41.6273 56.418 39.8842 58.1253 38.168 59.8558C36.8021 61.2306 36.8075 61.2413 38.1948 62.6358C38.3789 62.8181 38.5237 63.0613 38.842 63.1381ZM8.75235 35.5639C8.75235 36.456 8.75235 37.3499 8.75235 38.2419C8.75235 39.9814 8.75235 39.9457 10.5133 39.9832C11.1748 39.9975 11.2767 39.7723 11.2659 39.1805C11.2302 37.1282 11.2516 35.0741 11.2516 33.0217C11.2516 31.1714 11.2516 31.2018 9.39952 31.1911C8.80599 31.1875 8.72554 31.3931 8.73984 31.9044C8.77559 33.1236 8.75235 34.3429 8.75235 35.5639ZM8.70945 22.1361C8.70945 20.5003 8.70945 18.9718 8.70945 17.3128C7.12729 18.1941 5.63094 19.029 3.99694 19.939C5.66491 20.7166 7.15947 21.4139 8.70945 22.1361ZM22.3214 36.043C21.1361 36.4685 20.6051 37.1586 20.5569 38.1919C20.5104 39.1823 20.8644 39.9904 21.7421 40.5034C21.9424 40.6197 22.3124 40.9486 22.3178 40.3336C22.3285 38.9267 22.3214 37.5179 22.3214 36.043ZM47.8504 36.0752C47.8147 37.6556 47.9005 39.1519 47.6985 40.6876C48.9141 40.3014 49.4719 39.5577 49.4969 38.4225C49.5202 37.2962 49.0107 36.54 47.8504 36.0752Z" fill="#DE353B"/>
</svg>
