<svg width="75" height="80" viewBox="0 0 75 80" fill="none" xmlns="http://www.w3.org/2000/svg">
<path d="M37.0774 80C25.3308 80 13.5865 80 1.83989 80C0.166022 80 0 79.8408 0 78.2056C0 65.2468 0 52.288 0 39.3314C0 37.7235 0.211507 37.5188 1.84443 37.5143C2.75414 37.512 3.66613 37.4756 4.57129 37.5257C5.26721 37.5643 5.49464 37.3187 5.47872 36.6228C5.43778 34.8056 5.45825 32.9862 5.46735 31.1668C5.47417 29.8523 5.74481 29.5862 7.08436 29.5839C11.783 29.5771 16.4816 29.5634 21.178 29.5976C22.09 29.6044 22.3288 29.4361 22.1036 28.4581C20.15 19.9478 25.4923 11.7991 34.2232 9.88189C42.1968 8.13071 50.4638 13.6595 52.1968 21.9014C52.6471 24.0438 52.7176 26.2066 52.1513 28.3171C51.8329 29.502 52.2514 29.6089 53.2543 29.5998C57.8006 29.5589 62.3469 29.5816 66.8932 29.5816C68.5852 29.5816 68.774 29.7727 68.7763 31.4761C68.7785 33.1045 68.8377 34.7374 68.7535 36.3635C68.7035 37.3505 69.0583 37.6075 69.9771 37.5325C70.88 37.4574 71.7942 37.5075 72.7039 37.5188C73.9343 37.5348 74.2345 37.8281 74.2391 39.0767C74.2481 42.222 74.2413 45.3651 74.2413 48.5104C74.2413 58.3989 74.2413 68.2875 74.2413 78.176C74.2413 79.8294 74.0708 80 72.4265 80C60.6435 80 48.8605 80 37.0774 80ZM36.1427 74.6804C36.1427 70.7141 36.1427 67.0434 36.1427 63.3728C36.1427 58.565 36.1427 53.7549 36.1427 48.9471C36.1427 48.4263 36.236 47.9487 35.4741 47.7462C30.5457 46.4408 28.0691 43.2978 27.919 38.1966C27.903 37.6371 27.6961 37.2982 27.2867 36.9639C25.7425 35.7062 24.4712 34.2052 23.6001 32.4131C23.2408 31.6762 22.77 31.5011 22.0059 31.5079C17.5392 31.5398 13.0702 31.5489 8.60357 31.5034C7.67339 31.4943 7.39366 31.7263 7.39593 32.6883C7.42777 45.713 7.42777 58.7378 7.39593 71.7626C7.39366 72.7155 7.6552 72.9566 8.59447 72.9497C15.3718 72.9088 22.1491 72.952 28.9265 72.9156C31.4054 72.902 33.848 72.9156 36.1427 74.6804ZM38.1009 74.6941C40.482 72.8155 43.0611 72.9111 45.6424 72.9202C52.3446 72.9474 59.0492 72.9224 65.7515 72.9384C66.4451 72.9406 66.8499 72.8997 66.8477 71.9991C66.8204 58.8219 66.8227 45.6425 66.8431 32.4631C66.8454 31.7104 66.6021 31.5034 65.872 31.5079C61.253 31.5352 56.6316 31.5352 52.0126 31.5057C51.344 31.5011 50.9869 31.7285 50.7026 32.3085C49.9089 33.9209 48.8423 35.3583 47.4663 36.5068C46.7795 37.0822 46.5589 37.6735 46.5589 38.5377C46.5475 43.1636 43.55 46.8434 39.047 47.7553C38.3147 47.9032 38.0759 48.1647 38.085 48.9266C38.1259 52.6382 38.1031 56.3475 38.1031 60.0591C38.1009 64.8306 38.1009 69.602 38.1009 74.6941ZM38.1009 31.7263C38.1009 32.8247 38.1509 33.9255 38.085 35.0217C38.0349 35.8495 38.2555 36.1588 39.1425 36.1202C40.805 36.0474 42.4766 36.0724 44.1413 36.1133C44.7963 36.1293 45.2921 35.9314 45.772 35.4993C50.1249 31.5716 51.6783 26.7342 49.9839 21.1327C48.3601 15.7654 44.5712 12.5906 39.0015 11.7172C33.0588 10.7871 27.2071 14.0688 24.7691 19.5953C22.3197 25.1491 23.8776 31.7194 28.533 35.5493C28.997 35.9314 29.4677 36.1179 30.0772 36.1065C31.7807 36.0747 33.4864 36.0633 35.1898 36.1088C35.9198 36.1293 36.1768 35.92 36.1609 35.1559C36.1132 32.9225 36.12 30.6869 36.1586 28.4513C36.17 27.7872 35.9494 27.4757 35.3376 27.1936C33.6046 26.3977 32.7154 24.6078 33.0474 22.8089C33.4022 20.8734 34.835 19.5043 36.709 19.3088C38.4875 19.1245 40.3001 20.2276 40.971 21.9037C41.6715 23.6594 41.2644 25.8723 39.5723 26.7115C37.9872 27.4984 38.0417 28.5855 38.0963 29.9C38.1213 30.5141 38.1009 31.1213 38.1009 31.7263ZM36.7158 78.1578C35.0897 75.7061 32.9315 74.7509 30.1728 74.7714C22.563 74.8283 14.9511 74.7919 7.33908 74.7896C5.60381 74.7896 5.46962 74.6554 5.46735 72.9179C5.46508 62.5813 5.46735 52.2425 5.46735 41.9059C5.46735 39.3837 5.46735 39.4179 2.94973 39.4224C2.14009 39.4247 1.93768 39.6908 1.93768 40.4663C1.95815 52.6973 1.96042 64.9284 1.93541 77.1594C1.93313 77.9577 2.16738 78.1828 2.95655 78.1737C6.51579 78.1351 10.075 78.1578 13.6343 78.1578C21.2826 78.1578 28.9265 78.1578 36.7158 78.1578ZM37.53 78.1578C48.8877 78.1578 60.0976 78.1442 71.3075 78.1805C72.2695 78.1828 72.3036 77.7575 72.3036 77.0229C72.29 65.2081 72.2923 53.3933 72.2923 41.5784C72.2923 39.4383 72.29 39.502 70.1317 39.4179C69.0287 39.3747 68.749 39.7021 68.7535 40.7983C68.7967 51.4783 68.7785 62.156 68.7785 72.836C68.7785 74.6736 68.6625 74.7919 66.8772 74.7919C59.2266 74.7919 51.5782 74.8214 43.9276 74.776C41.2075 74.7578 39.1107 75.7675 37.53 78.1578ZM37.2276 41.6444C35.258 41.6444 33.2908 41.658 31.3213 41.6376C30.6344 41.6307 30.5025 41.8582 30.8573 42.4313C32.3106 44.7692 34.4598 46.0428 37.1593 46.0701C39.8998 46.0974 42.1127 44.8761 43.6069 42.4972C43.9867 41.89 43.8957 41.6285 43.1316 41.6376C41.1666 41.658 39.1971 41.6444 37.2276 41.6444ZM37.2662 37.9328C35.0715 37.9328 32.8769 37.9373 30.6799 37.9305C30.1682 37.9282 29.6861 37.8691 29.7452 38.6537C29.7952 39.3246 29.8589 39.784 30.7459 39.7772C35.0988 39.7385 39.4518 39.7408 43.8025 39.7749C44.6394 39.7817 44.6826 39.3474 44.7258 38.7151C44.7736 38.0101 44.4415 37.9146 43.8502 37.9214C41.6578 37.9487 39.4609 37.9328 37.2662 37.9328ZM37.0911 25.7108C38.351 25.7176 39.3131 24.7852 39.3449 23.5253C39.3745 22.2494 38.3351 21.1782 37.0866 21.1987C35.8835 21.2191 34.8896 22.2471 34.8919 23.4752C34.8919 24.7352 35.8448 25.7017 37.0911 25.7108Z" fill="#DE353B"/>
<path d="M57.746 27.6827C56.7271 27.6827 55.7083 27.6827 54.6894 27.6827C53.998 27.6827 53.4567 27.4234 53.4636 26.6707C53.4704 25.9702 54.0071 25.7268 54.6394 25.7246C56.7522 25.7155 58.865 25.7177 60.98 25.7246C61.635 25.7268 62.1058 26.0179 62.0808 26.7252C62.058 27.4257 61.5645 27.6804 60.9186 27.6827C59.8588 27.685 58.8013 27.6804 57.746 27.6827Z" fill="#DE353B"/>
<path d="M16.5432 25.7177C17.5598 25.7177 18.5787 25.72 19.5953 25.7177C20.2412 25.7154 20.7575 25.9656 20.7779 26.6501C20.8029 27.4029 20.2685 27.6804 19.5748 27.6804C17.503 27.6827 15.4288 27.6849 13.357 27.6781C12.7293 27.6758 12.2176 27.4825 12.1948 26.7434C12.1721 25.9474 12.6838 25.7177 13.3752 25.7154C14.4327 25.7177 15.488 25.7177 16.5432 25.7177Z" fill="#DE353B"/>
<path d="M36.1427 4.40096C36.1427 3.3457 36.1449 2.29044 36.1427 1.23517C36.1381 0.54607 36.3815 -0.0134012 37.1388 0.000244425C37.8939 0.0161643 38.1054 0.589281 38.1031 1.27156C38.0963 3.30704 38.1031 5.34251 38.0985 7.37798C38.0963 8.05344 37.8688 8.62428 37.1001 8.61064C36.3292 8.59699 36.1381 8.01023 36.1404 7.33932C36.1427 6.36138 36.1427 5.38117 36.1427 4.40096Z" fill="#DE353B"/>
<path d="M19.238 7.86471C19.6656 7.83969 19.9362 8.11033 20.2046 8.38097C21.6215 9.80239 23.0293 11.2284 24.4529 12.643C24.9305 13.1183 25.2512 13.655 24.7281 14.219C24.13 14.8626 23.591 14.4669 23.0929 13.9598C21.6624 12.5042 20.2183 11.0578 18.7695 9.61817C18.4148 9.26566 18.2146 8.87903 18.4307 8.40144C18.574 8.08076 18.8582 7.88063 19.238 7.86471Z" fill="#DE353B"/>
<path d="M54.8214 7.9034C55.3149 7.86474 55.5946 8.0626 55.7743 8.36735C55.9858 8.72442 55.954 9.10422 55.6538 9.40897C54.0322 11.0442 52.4106 12.6816 50.7709 14.2964C50.4002 14.6625 49.9499 14.6443 49.5542 14.2782C49.1994 13.9484 49.1061 13.4913 49.4018 13.1547C51.0029 11.3444 52.7131 9.64095 54.5052 8.01939C54.603 7.92615 54.7804 7.91705 54.8214 7.9034Z" fill="#DE353B"/>
<path d="M21.4101 68.217C24.403 68.217 27.3959 68.2193 30.3889 68.217C31.1075 68.217 31.8467 68.2352 31.8103 69.2245C31.7762 70.1001 31.103 70.1752 30.4162 70.1752C24.3552 70.1729 18.292 70.1752 12.2311 70.1729C11.542 70.1729 10.8734 70.0728 10.8597 69.1972C10.8461 68.3057 11.5079 68.2147 12.2061 68.217C15.2718 68.2193 18.3398 68.217 21.4101 68.217Z" fill="#DE353B"/>
<path d="M21.2873 62.4631C18.3739 62.4631 15.4629 62.4654 12.5495 62.4608C12.2107 62.4608 11.8604 62.4745 11.5375 62.3972C11.094 62.2903 10.8324 61.9855 10.8415 61.492C10.8506 61.0008 11.0963 60.7051 11.5739 60.6346C11.9468 60.58 12.3244 60.5482 12.7019 60.5482C18.4513 60.5436 24.2006 60.5323 29.95 60.5596C30.6755 60.5618 31.7739 60.2707 31.7921 61.4715C31.8126 62.7656 30.6846 62.4472 29.9113 62.454C27.0366 62.4768 24.1619 62.4631 21.2873 62.4631Z" fill="#DE353B"/>
<path d="M21.3054 54.7624C18.2806 54.7624 15.2536 54.7602 12.2288 54.7647C11.5465 54.7647 10.8528 54.7283 10.8597 53.8254C10.8665 52.9248 11.567 52.8975 12.2447 52.8975C18.3329 52.8998 24.4212 52.9021 30.5117 52.8975C31.1598 52.8975 31.783 52.9407 31.8125 53.7822C31.8444 54.6942 31.1962 54.7693 30.4957 54.7693C27.4323 54.7602 24.3688 54.7624 21.3054 54.7624Z" fill="#DE353B"/>
<path d="M19.7635 47.0731C17.23 47.0731 14.6987 47.0731 12.1652 47.0731C11.5284 47.0731 10.8779 47.0345 10.8552 46.1953C10.8324 45.2969 11.4897 45.2128 12.1879 45.2128C17.2163 45.215 22.2425 45.2173 27.2709 45.2128C27.96 45.2128 28.6354 45.2764 28.6332 46.168C28.6309 47.0936 27.9145 47.0754 27.2481 47.0754C24.7533 47.0708 22.2584 47.0731 19.7635 47.0731Z" fill="#DE353B"/>
<path d="M18.3625 37.5166C20.3321 37.5166 22.2993 37.5166 24.2688 37.5166C24.9557 37.5166 25.6425 37.603 25.6425 38.4809C25.6448 39.3747 24.9193 39.4361 24.2575 39.4384C20.2456 39.4475 16.2315 39.4497 12.2197 39.4384C11.5625 39.4361 10.8415 39.3883 10.8552 38.4718C10.8665 37.5735 11.5534 37.5189 12.2311 37.5189C14.2734 37.5166 16.318 37.5166 18.3625 37.5166Z" fill="#DE353B"/>
<path d="M52.9405 68.217C55.9335 68.217 58.9264 68.217 61.9194 68.217C62.6289 68.217 63.3931 68.2193 63.3817 69.1927C63.3726 70.1456 62.6176 70.1752 61.9034 70.1752C55.8812 70.1752 49.8566 70.1752 43.8344 70.1752C43.1498 70.1752 42.4652 70.1138 42.4311 69.2359C42.3947 68.2625 43.118 68.2148 43.848 68.217C46.8796 68.2216 49.9089 68.217 52.9405 68.217Z" fill="#DE353B"/>
<path d="M52.8587 62.4631C49.9453 62.4631 47.032 62.4654 44.1209 62.4609C43.7821 62.4609 43.4341 62.47 43.1066 62.3972C42.6449 62.2971 42.4107 61.9605 42.4175 61.4852C42.4243 61.0076 42.6563 60.6892 43.1475 60.6278C43.5205 60.58 43.9003 60.5459 44.2756 60.5459C50.0249 60.5414 55.7766 60.53 61.5259 60.5573C62.2514 60.5596 63.3476 60.2798 63.3658 61.4738C63.3863 62.7656 62.2537 62.4449 61.485 62.454C58.608 62.479 55.7334 62.4631 52.8587 62.4631Z" fill="#DE353B"/>
<path d="M52.7972 52.8976C55.8606 52.8976 58.924 52.8976 61.9898 52.8976C62.6561 52.8976 63.3725 52.893 63.3816 53.8096C63.3907 54.7079 62.7107 54.7648 62.0216 54.7648C55.9311 54.7602 49.8406 54.7602 43.7524 54.7648C43.0565 54.7648 42.4037 54.6988 42.4265 53.7868C42.4492 52.9453 43.0678 52.893 43.7183 52.8953C46.7453 52.9021 49.7724 52.8976 52.7972 52.8976Z" fill="#DE353B"/>
<path d="M54.6212 47.0732C52.165 47.0732 49.7065 47.0686 47.2503 47.0754C46.5634 47.0777 45.8766 47.03 45.8857 46.1316C45.8948 45.231 46.5976 45.2105 47.2753 45.2105C52.19 45.2128 57.1047 45.2128 62.0194 45.2105C62.704 45.2105 63.3885 45.2606 63.3817 46.1612C63.3771 47.0845 62.6585 47.0709 61.9944 47.0709C59.5359 47.0732 57.0797 47.0732 54.6212 47.0732Z" fill="#DE353B"/>
<path d="M56.0086 37.5166C58.0145 37.5166 60.0204 37.5166 62.0263 37.5166C62.7131 37.5166 63.3886 37.5939 63.3886 38.4854C63.3863 39.3974 62.6631 39.4361 62.0058 39.4361C58.0304 39.4475 54.0572 39.4406 50.0818 39.4406C50.0068 39.4406 49.9294 39.4429 49.8544 39.4338C49.2381 39.361 48.5694 39.3065 48.5944 38.4604C48.6194 37.6553 49.2176 37.5189 49.8771 37.5166C51.9194 37.5166 53.964 37.5166 56.0086 37.5166Z" fill="#DE353B"/>
</svg>
