<svg width="80" height="80" viewBox="0 0 80 80" fill="none" xmlns="http://www.w3.org/2000/svg">
<path d="M59.4351 71.9321C61.7608 70.5392 63.7364 69.0713 65.5208 67.364C77.878 55.5367 80.8592 37.6662 72.9623 22.5029C70.3383 17.4634 66.6372 13.315 62.0537 9.95055C61.6304 9.63982 61.4161 9.58625 61.0856 10.0577C59.9442 11.6899 58.7653 13.2971 57.5917 14.9061C57.0255 15.6812 56.8879 16.4848 57.1684 17.4277C57.7936 19.5349 58.3741 21.6547 58.9278 23.7816C59.2172 24.8959 59.8978 25.5352 61.0052 25.7102C62.2681 25.9085 63.5399 26.0406 64.8028 26.2353C66.7605 26.5353 68.2073 27.5193 69.0415 29.3747C69.881 31.2444 70.7777 33.0892 71.6673 34.9357C72.5318 36.7322 72.2817 38.468 71.3868 40.1538C70.8438 41.1771 70.2097 42.1521 69.6506 43.1664C69.0415 44.2701 68.686 45.3773 69.413 46.6202C69.7828 47.2523 69.5613 47.9077 68.9129 48.322C68.3056 48.7096 67.5393 48.5149 67.0641 47.7827C66.0156 46.1648 66.0442 44.4683 66.8873 42.7807C67.391 41.7717 67.8983 40.7502 68.5253 39.8163C69.631 38.168 69.7667 36.5929 68.7039 34.8392C67.9537 33.6017 67.4303 32.223 66.8391 30.8926C66.2353 29.5301 65.1993 28.8515 63.7274 28.7318C62.6914 28.6479 61.6572 28.5122 60.6283 28.3604C58.7099 28.0746 57.2648 27.0817 56.6254 25.2334C55.7626 22.7369 55.0892 20.176 54.498 17.5991C54.1443 16.058 54.4479 14.6472 55.375 13.3721C56.4932 11.8328 57.5971 10.2809 58.7563 8.77192C59.1529 8.25583 59.1958 8.02903 58.5599 7.67009C52.3455 4.15563 45.6811 2.51984 38.5504 2.78592C31.3162 3.05558 24.7339 5.28426 18.7821 9.39338C18.6107 9.51125 18.4374 9.62911 18.257 9.7309C17.5586 10.1202 16.8959 9.9827 16.4582 9.36124C16.0349 8.76121 16.1206 8.03617 16.7673 7.55401C18.2695 6.43074 19.8717 5.45748 21.5294 4.58065C27.7062 1.31621 34.2974 -0.183863 41.2834 0.0179326C57.6703 0.49117 72.8087 11.7274 77.9405 27.2353C83.9691 45.4487 76.4187 65.2193 59.787 74.7858C54.3015 77.9413 48.4176 79.6968 42.0836 79.995C40.9261 80.0486 40.1152 79.6718 39.3346 78.8914C36.4123 75.9662 33.5365 72.9857 30.4838 70.2017C28.6082 68.4926 27.8866 66.5443 28.0741 64.096C28.2028 62.4066 28.2153 60.7084 28.2599 59.0118C28.2974 57.5957 27.8794 56.9278 26.5523 56.4153C22.5064 54.8527 18.466 53.2741 14.3898 51.7918C12.3678 51.0561 11.0352 49.8221 10.3618 47.7399C9.44011 44.8862 8.3648 42.0842 7.35379 39.2591C7.19124 38.8037 7.04298 38.3519 7.31806 37.8876C7.61994 37.3804 8.08257 37.134 8.65953 37.1697C9.27042 37.209 9.60802 37.6251 9.79915 38.1608C10.4493 39.9788 11.087 41.8003 11.7354 43.6182C12.1445 44.7647 12.6107 45.8934 12.9697 47.0559C13.3288 48.2185 14.0861 48.8399 15.2097 49.2524C19.3073 50.7614 23.3835 52.3294 27.4561 53.9044C29.9175 54.8563 30.9839 56.4903 30.925 59.1261C30.8803 61.1477 30.8232 63.171 30.7446 65.1925C30.7071 66.1747 31.0179 66.9479 31.7431 67.6498C34.8404 70.6517 37.8967 73.6965 40.9654 76.727C41.2852 77.0431 41.5781 77.2966 42.1086 77.2627C46.8475 76.9645 51.3845 75.8769 55.718 73.9268C56.2449 73.6893 56.4771 73.3679 56.5789 72.825C57.2684 69.1141 57.9722 65.405 58.6938 61.7013C58.951 60.378 58.7117 59.3208 57.6364 58.3547C55.6251 56.5456 53.7263 54.6116 51.8007 52.7098C51.0827 51.999 50.2896 51.6829 49.2518 51.7008C46.0098 51.7561 42.7642 51.7472 39.5221 51.7133C36.1837 51.6776 33.8651 48.9042 34.4582 45.7112C34.6922 44.4522 35.3584 43.4522 36.3873 42.7111C37.618 41.8235 38.863 40.9574 40.117 40.1038C40.7243 39.6913 41.0958 39.1645 41.1387 38.4216C41.178 37.709 41.2548 36.9983 41.2548 36.2875C41.2619 32.6284 41.2548 28.9693 41.2405 25.3102C41.2351 23.9584 40.6528 23.1244 39.5329 22.794C38.5701 22.5101 37.677 22.7762 37.0714 23.578C36.7678 23.9798 36.4837 24.4084 36.273 24.8638C34.6046 28.4729 28.6475 28.5604 26.7898 24.7459C26.245 23.6262 25.4966 22.6065 24.9393 21.4922C24.4534 20.5189 23.7014 20.026 22.6833 19.81C19.661 19.1653 16.6404 18.5045 13.6199 17.8491C12.8358 17.6795 12.0462 17.5313 11.2728 17.3259C10.7441 17.1848 10.4208 17.3152 10.0867 17.7706C6.2874 22.9226 3.78667 28.6318 3.07932 35.0018C1.57531 48.5185 5.97481 59.8172 16.2403 68.7534C19.9861 72.0142 24.348 74.2393 29.103 75.6823C29.4156 75.7769 29.7389 75.8484 30.039 75.9752C30.7481 76.2752 31.0554 76.9556 30.7982 77.6538C30.5302 78.3842 29.9818 78.6521 29.2406 78.4878C27.3739 78.0717 25.5948 77.3895 23.8711 76.5859C13.3234 71.666 5.79976 63.8549 2.18442 52.7526C-2.25081 39.1359 0.128456 26.5335 8.77027 15.1079C9.23112 14.499 9.74556 14.3079 10.4618 14.4633C13.8593 15.1954 17.2603 15.9151 20.6595 16.6419C21.6187 16.8473 22.5725 17.0795 23.5371 17.2634C25.0375 17.5491 26.1468 18.3813 26.9274 19.6582C27.7169 20.9511 28.4653 22.2708 29.2263 23.5816C30.2498 25.3406 32.6594 25.4406 33.8223 23.7601C34.058 23.4191 34.2438 23.044 34.4457 22.6797C35.6156 20.5832 37.7127 19.6403 40.0259 20.1707C42.289 20.6921 43.8645 22.4476 43.8948 24.7977C43.9502 29.1104 44.0717 33.4249 43.9377 37.7376C43.8752 39.7323 43.1178 41.3592 41.3959 42.4825C40.351 43.1646 39.3364 43.895 38.3129 44.6094C37.1786 45.4005 36.8053 46.3184 37.1625 47.4202C37.5073 48.4863 38.404 49.0471 39.7436 49.0542C43.016 49.0721 46.2884 48.9417 49.5608 49.0506C51.1898 49.1042 52.5331 49.6132 53.6941 50.8061C55.7072 52.8723 57.8132 54.8474 59.8781 56.8617C61.3178 58.2672 61.7733 59.9494 61.3785 61.9155C60.723 65.1746 60.1103 68.4409 59.4351 71.9321Z" fill="#DE353B"/>
</svg>
